<svg width="25" height="24" viewBox="0 0 25 24" fill="#183F27" xmlns="http://www.w3.org/2000/svg">
<path d="M12.375 0.674988C6.11255 0.674988 1.05005 5.73749 1.05005 12C1.05005 18.2625 6.11255 23.3625 12.375 23.3625C18.6376 23.3625 23.7375 18.2625 23.7375 12C23.7375 5.73749 18.6376 0.674988 12.375 0.674988ZM12.375 21.675C7.05005 21.675 2.73755 17.325 2.73755 12C2.73755 6.67499 7.05005 2.36249 12.375 2.36249C17.7 2.36249 22.05 6.71249 22.05 12.0375C22.05 17.325 17.7 21.675 12.375 21.675Z" fill="#111928"/>
<path d="M15.6001 8.51251L11.1376 12.8625L9.11261 10.875C8.77511 10.5375 8.25011 10.575 7.91261 10.875C7.57511 11.2125 7.61261 11.7375 7.91261 12.075L10.3126 14.4C10.5376 14.625 10.8376 14.7375 11.1376 14.7375C11.4376 14.7375 11.7376 14.625 11.9626 14.4L16.8001 9.75001C17.1376 9.41251 17.1376 8.88751 16.8001 8.55001C16.4626 8.21251 15.9376 8.21251 15.6001 8.51251Z" fill="#111928"/>
</svg>
