<svg width="22" height="23" viewBox="0 0 22 23" fill="none" xmlns="http://www.w3.org/2000/svg">
<g clip-path="url(#clip0_2501_18302)">
<path d="M21.4094 7.02541C21.3757 5.94746 21.1735 5.17267 20.9377 4.46526C20.7019 3.75785 20.3314 3.18519 19.7587 2.61253C19.1861 2.03986 18.6134 1.703 17.9397 1.43351C17.266 1.16402 16.5249 0.99559 15.3795 0.961904C14.2005 0.894531 13.8637 0.894531 11.0003 0.894531C8.137 0.894531 7.83383 0.894531 6.6885 0.928217C5.54317 0.961904 4.83576 1.16402 4.12835 1.39982C3.42094 1.63563 2.84828 2.03986 2.27561 2.61253C1.70295 3.18519 1.3324 3.75785 1.0966 4.46526C0.827106 5.13899 0.658676 5.88008 0.62499 7.02541C0.591303 8.17074 0.557617 8.47392 0.557617 11.3372C0.557617 14.2006 0.557617 14.5037 0.591303 15.6491C0.62499 16.7944 0.827106 17.5018 1.06291 18.2092C1.29871 18.9166 1.66926 19.4893 2.24193 20.062C2.81459 20.6346 3.42094 21.0052 4.09466 21.241C4.76839 21.4768 5.50948 21.6789 6.65481 21.7126C7.80014 21.7799 8.10332 21.7799 10.9666 21.7799C13.83 21.7799 14.1331 21.7799 15.2785 21.7463C16.4238 21.7126 17.1312 21.5105 17.8386 21.2747C18.546 21.0389 19.1187 20.6683 19.6914 20.0956C20.264 19.523 20.6346 18.9166 20.8704 18.2429C21.1062 17.5692 21.3083 16.8281 21.342 15.6828C21.3757 14.6048 21.3757 14.2679 21.3757 11.4046C21.3757 8.54129 21.443 8.17074 21.4094 7.02541ZM19.5229 15.548C19.4892 16.5586 19.2871 17.0976 19.1524 17.5018C18.9503 17.9734 18.7145 18.344 18.3439 18.6808C17.9734 19.0514 17.6365 19.2535 17.1649 19.4893C16.7943 19.624 16.2554 19.8262 15.2111 19.8598C14.1331 19.8598 13.7963 19.8598 11.034 19.8598C8.27175 19.8598 7.9012 19.8598 6.82324 19.8262C5.81266 19.7925 5.27368 19.5903 4.86945 19.4556C4.39784 19.2535 4.02729 19.0177 3.69043 18.6471C3.31988 18.2766 3.11777 17.9397 2.88196 17.4681C2.74722 17.0976 2.5451 16.5586 2.51141 15.5143C2.51141 14.4701 2.51141 14.1332 2.51141 11.3372C2.51141 8.54129 2.51141 8.20443 2.5451 7.12647C2.57879 6.11589 2.7809 5.57691 2.91565 5.17267C3.11777 4.70107 3.35357 4.33052 3.69043 3.99366C4.06098 3.62311 4.39784 3.42099 4.86945 3.21888C5.23999 3.08413 5.77897 2.88201 6.82324 2.84833C7.9012 2.81464 8.23806 2.81464 11.034 2.81464C13.83 2.81464 14.1668 2.81464 15.2448 2.84833C16.2554 2.88201 16.7943 3.08413 17.1986 3.21888C17.6702 3.42099 18.0407 3.6568 18.3776 3.99366C18.7481 4.36421 18.9503 4.70107 19.1861 5.17267C19.3208 5.54322 19.5229 6.0822 19.5566 7.12647C19.5903 8.20443 19.5903 8.54129 19.5903 11.3372C19.5903 14.1332 19.5566 14.4701 19.5229 15.548Z" fill="#101010"/>
<path d="M11.0006 5.98242C8.00256 5.98242 5.64453 8.40783 5.64453 11.3385C5.64453 14.3366 8.06993 16.6946 11.0006 16.6946C13.9313 16.6946 16.3904 14.3366 16.3904 11.3385C16.3904 8.34045 13.9987 5.98242 11.0006 5.98242ZM11.0006 14.8419C9.04683 14.8419 7.49727 13.2586 7.49727 11.3385C7.49727 9.41841 9.08052 7.83516 11.0006 7.83516C12.9544 7.83516 14.504 9.38472 14.504 11.3385C14.504 13.2923 12.9544 14.8419 11.0006 14.8419Z" fill="#101010"/>
<path d="M16.6263 6.99278C17.3146 6.99278 17.8727 6.43473 17.8727 5.74639C17.8727 5.05801 17.3146 4.5 16.6263 4.5C15.9379 4.5 15.3799 5.05801 15.3799 5.74639C15.3799 6.43473 15.9379 6.99278 16.6263 6.99278Z" fill="#101010"/>
</g>
<defs>
<clipPath id="clip0_2501_18302">
<rect width="21.5591" height="21.5591" fill="white" transform="translate(0.220703 0.558594)"/>
</clipPath>
</defs>
</svg>
