<svg width="22" height="23" viewBox="0 0 22 23" fill="none" xmlns="http://www.w3.org/2000/svg">
<path d="M6.57268 5.04945C6.57244 5.52593 6.38293 5.98281 6.04584 6.31957C5.70874 6.65633 5.25168 6.84538 4.77519 6.84514C4.2987 6.84491 3.84183 6.65539 3.50507 6.3183C3.16831 5.9812 2.97925 5.52414 2.97949 5.04765C2.97973 4.57116 3.16924 4.11429 3.50634 3.77753C3.84343 3.44077 4.3005 3.25172 4.77699 3.25195C5.25347 3.25219 5.71035 3.4417 6.04711 3.7788C6.38387 4.11589 6.57292 4.57296 6.57268 5.04945ZM6.62658 8.17552H3.03339V19.4222H6.62658V8.17552ZM12.3038 8.17552H8.7286V19.4222H12.2679V13.5204C12.2679 10.2326 16.5528 9.9272 16.5528 13.5204V19.4222H20.101V12.2987C20.101 6.75621 13.7591 6.96282 12.2679 9.68466L12.3038 8.17552Z" fill="#101010"/>
</svg>
